<svg width="23" height="24" viewBox="0 0 23 24" fill="none" xmlns="http://www.w3.org/2000/svg">
<path d="M12.1104 14.0164L9.32837 11.2343L17.6745 2.88816L20.4566 5.67022L12.1104 14.0164Z" fill="white"/>
<path d="M21.8592 4.26758L19.0308 1.43915C19.8119 0.658101 21.0782 0.658101 21.8592 1.43915C22.6403 2.2202 22.6403 3.48653 21.8592 4.26758Z" fill="white"/>
<path d="M6.53472 16.81L10.7078 15.419L7.92575 12.6369L7.23024 14.7235L8.62126 16.1145L6.53472 16.81Z" fill="white"/>
<path d="M6.53472 16.81L7.23024 14.7235L8.62126 16.1145L6.53472 16.81Z" fill="white"/>
<path d="M6.53472 16.81L7.23024 14.7235L8.62126 16.1145L6.53472 16.81Z" fill="white"/>
<path d="M17.8361 21.1639H2.16394L2.16394 5.4918L9.11897 5.4918L11.119 3.4918L0.163941 3.4918L0.16394 23.1639L19.8361 23.1639V11.7453L17.8361 13.7453V21.1639Z" fill="white"/>
</svg>
