<svg width="29" height="29" viewBox="0 0 29 29" fill="none" xmlns="http://www.w3.org/2000/svg">
<path d="M16.1839 17.0989L12.0386 12.9535L22.012 2.9801L26.1574 7.1255L16.1839 17.0989Z" fill="white"/>
<path d="M27.4468 5.83601L23.2042 1.59337L23.9113 0.886263C24.6924 0.105214 25.9587 0.105214 26.7397 0.886262L28.154 2.30048C28.935 3.08152 28.935 4.34785 28.154 5.1289L27.4468 5.83601Z" fill="white"/>
<path d="M9.06206 19.9782L10.4763 14.3213L14.7189 18.5639L9.06206 19.9782Z" fill="white"/>
<path d="M23.455 24.455H4.56842V5.56841L12.1579 5.56841L16.1579 1.56841L0.568421 1.56841L0.56842 28.455H27.455L27.455 12.8987L23.455 16.8987V24.455Z" fill="white"/>
<path d="M27.455 1.60155V1.56841H27.4219L27.455 1.60155Z" fill="white"/>
</svg>
